<?xml version="1.0" standalone="no"?>
<!DOCTYPE svg PUBLIC "-//W3C//DTD SVG 20010904//EN"
 "http://www.w3.org/TR/2001/REC-SVG-20010904/DTD/svg10.dtd">
<svg version="1.0" xmlns="http://www.w3.org/2000/svg"
 width="300.000000pt" height="300.000000pt" viewBox="0 0 300.000000 300.000000"
 preserveAspectRatio="xMidYMid meet">
<metadata>
Created by potrace 1.14, written by Peter Selinger 2001-2017
</metadata>
<g transform="translate(0.000000,300.000000) scale(0.100000,-0.100000)"
fill="#000000" stroke="none">
<path d="M1940 2991 c0 -6 15 -7 34 -4 18 3 36 1 39 -4 3 -5 -8 -8 -26 -6
l-32 3 33 -17 c17 -9 32 -21 32 -25 0 -5 -5 -6 -10 -3 -6 4 -22 -1 -36 -10
-13 -9 -30 -13 -37 -9 -9 5 -9 4 0 -6 9 -10 15 -10 26 -2 8 7 37 11 65 10 54
-3 57 -12 7 -23 -23 -5 -26 -4 -15 4 12 9 10 10 -12 9 -21 -2 -24 -5 -16 -15
6 -7 18 -13 28 -13 25 0 32 -11 17 -28 -10 -13 -9 -14 10 -4 14 8 24 9 28 2 3
-5 15 -15 27 -21 15 -8 19 -8 14 0 -12 19 3 12 34 -16 29 -25 27 -43 -5 -43
-5 0 -4 4 4 9 13 9 8 31 -8 31 -12 0 -6 -39 7 -52 16 -16 124 -17 118 -1 -3 8
1 10 11 6 12 -5 14 -3 8 7 -6 9 -4 11 4 6 18 -12 -18 -49 -41 -43 -10 3 -20 1
-23 -3 -3 -5 15 -7 40 -5 25 2 43 0 40 -5 -3 -4 1 -10 9 -13 8 -3 17 1 20 9 3
8 13 14 23 13 16 0 16 -1 -2 -8 -16 -6 -14 -9 15 -14 19 -4 38 -3 44 3 12 12
26 13 26 1 0 -5 -9 -11 -21 -14 -12 -3 -18 -10 -15 -15 3 -6 0 -13 -6 -15 -8
-3 -6 -6 5 -6 10 -1 17 6 17 16 0 13 3 14 12 5 17 -17 31 -15 24 4 -5 14 -4
15 8 5 11 -9 17 -8 29 4 14 14 16 13 16 -2 0 -10 0 -70 0 -133 0 -63 -1 -124
-3 -135 -3 -11 -5 -30 -5 -41 -1 -16 -13 -26 -48 -39 -27 -10 -78 -33 -115
-52 -36 -18 -75 -33 -86 -33 -11 0 -23 -7 -26 -17 -6 -14 -8 -14 -20 3 -8 10
-18 16 -22 11 -4 -4 -2 -7 5 -7 7 0 9 -4 6 -10 -3 -5 -1 -10 5 -10 7 0 10 -7
6 -15 -7 -19 -1 -19 19 1 9 9 32 20 51 24 32 7 34 6 22 -8 -7 -10 -17 -20 -23
-25 -5 -4 11 -6 38 -5 33 2 46 7 42 16 -2 6 0 12 5 12 6 0 10 -5 10 -10 0 -7
8 -6 23 1 21 12 21 11 7 -6 -8 -10 -10 -16 -4 -12 6 3 25 9 42 12 31 5 44 -10
25 -28 -3 -4 -7 -18 -9 -31 -2 -20 -18 -64 -71 -193 -3 -7 3 -11 14 -11 32 3
74 -12 67 -23 -4 -7 1 -7 15 0 20 11 88 9 196 -5 81 -10 98 -16 84 -25 -8 -5
-9 -9 -4 -9 6 -1 55 -7 110 -13 55 -7 108 -11 118 -9 16 3 17 38 17 568 l0
564 -530 0 c-323 0 -530 -4 -530 -9z m180 -136 c0 -11 -29 -11 -33 -1 -4 10 1
12 14 9 10 -3 19 -7 19 -8z m117 -71 c-3 -3 -12 -4 -19 -1 -8 3 -5 6 6 6 11 1
17 -2 13 -5z m-19 -25 c-11 -6 -24 -6 -34 -1 -12 7 -8 9 18 10 26 1 30 -1 16
-9z"/>
<path d="M1953 2943 c9 -2 23 -2 30 0 6 3 -1 5 -18 5 -16 0 -22 -2 -12 -5z"/>
<path d="M2062 2826 c10 -7 14 -16 10 -20 -4 -4 0 -6 8 -4 8 2 14 -3 13 -9 -2
-7 2 -13 7 -13 6 0 10 4 10 8 0 11 -44 52 -56 52 -5 0 -1 -7 8 -14z"/>
<path d="M2030 2816 c0 -2 7 -7 16 -10 8 -3 12 -2 9 4 -6 10 -25 14 -25 6z"/>
<path d="M2355 2671 c-3 -5 0 -13 6 -17 7 -4 9 -3 5 4 -3 5 0 13 6 15 9 4 10
6 1 6 -6 1 -14 -3 -18 -8z"/>
<path d="M2475 2669 c-4 -6 -17 -14 -29 -19 -15 -6 -16 -9 -5 -9 9 -1 27 8 40
19 13 10 19 19 12 20 -6 0 -15 -5 -18 -11z"/>
<path d="M2398 2633 c7 -3 16 -2 19 1 4 3 -2 6 -13 5 -11 0 -14 -3 -6 -6z"/>
<path d="M2470 2636 c0 -2 7 -6 15 -10 8 -3 15 -1 15 4 0 6 -7 10 -15 10 -8 0
-15 -2 -15 -4z"/>
<path d="M2152 2224 c-14 -16 -5 -18 17 -5 7 5 9 11 5 14 -5 3 -15 -1 -22 -9z"/>
<path d="M2848 1743 c-6 -7 -18 -13 -27 -13 -14 -1 -13 -3 3 -15 17 -13 16
-14 -10 -13 -16 0 -38 0 -49 -1 -19 -1 -19 -2 -2 -12 9 -5 23 -7 30 -3 6 4 9
4 5 -1 -4 -4 -3 -14 3 -21 8 -9 6 -11 -8 -8 -10 3 -27 -2 -38 -11 -20 -16 -20
-16 2 -6 28 14 33 14 33 -3 0 -10 -14 -13 -54 -12 -30 1 -53 -2 -50 -6 3 -4
-8 -10 -23 -14 -15 -3 -34 -7 -41 -10 -7 -2 -10 0 -7 5 3 5 1 12 -4 15 -5 3
-12 -1 -15 -10 -3 -8 -10 -12 -16 -9 -5 3 -10 1 -10 -4 0 -6 -5 -11 -11 -11
-5 0 -7 4 -4 10 3 5 -13 3 -36 -5 -29 -11 -46 -12 -53 -5 -15 15 -26 12 -20
-4 4 -11 0 -13 -17 -9 -12 4 -20 2 -17 -3 4 -5 -8 -10 -25 -11 -17 -1 -35 -8
-41 -14 -8 -9 -7 -10 6 -6 15 5 16 4 5 -13 -6 -11 -15 -20 -19 -20 -5 0 -8 -4
-8 -10 0 -5 17 -7 38 -5 l37 4 -30 -14 c-17 -7 -51 -12 -78 -10 -32 3 -45 0
-41 -7 5 -7 2 -8 -6 -3 -22 14 -80 23 -86 14 -3 -5 0 -8 7 -7 6 2 14 -3 16 -9
3 -8 -5 -13 -21 -13 -28 0 -34 18 -13 39 9 10 7 10 -11 0 -13 -9 -20 -20 -17
-29 5 -12 4 -13 -6 -2 -15 14 -33 16 -24 2 10 -17 -7 -11 -22 8 -14 16 -14 16
-9 0 5 -17 -6 -24 -29 -18 -5 2 -18 2 -27 2 -10 0 -20 3 -23 9 -4 5 2 6 12 2
10 -3 15 -3 11 2 -10 11 -59 12 -80 2 -11 -4 -18 -4 -18 2 0 10 -46 8 -57 -3
-7 -6 36 -11 75 -7 12 1 22 -2 22 -7 0 -5 -44 -10 -97 -11 -54 -1 -118 -4
-143 -6 -156 -11 -210 -7 -210 13 0 9 58 8 67 -1 11 -12 23 -7 23 9 0 14 1 14
16 0 12 -13 20 -14 36 -5 12 6 18 7 14 1 -3 -6 5 -9 19 -8 14 0 25 4 25 8 0 4
16 4 35 1 22 -4 35 -2 35 5 0 6 7 9 15 6 8 -4 15 -2 15 2 0 13 -199 15 -221 3
-14 -7 -19 -6 -19 3 0 9 -3 9 -12 0 -7 -7 -19 -12 -28 -12 -13 0 -13 1 0 10 8
5 10 10 4 10 -6 0 -14 -3 -18 -7 -4 -5 -34 -6 -67 -5 -46 3 -59 1 -59 -11 0
-10 8 -13 25 -11 14 2 36 6 50 8 15 2 31 -4 42 -16 17 -19 15 -19 -76 -15 -51
2 -115 0 -142 -3 -28 -4 -52 -3 -54 1 -3 3 -16 9 -30 11 -13 3 -22 1 -19 -3 3
-5 15 -9 27 -9 20 -1 20 -2 4 -11 -9 -5 -22 -7 -29 -3 -7 4 -8 3 -4 -4 5 -8
-5 -11 -31 -10 -21 1 -103 -2 -183 -6 -80 -4 -266 -10 -415 -12 -148 -1 -329
-4 -402 -6 -76 -2 -129 1 -125 6 3 5 0 6 -6 2 -8 -5 -12 -61 -12 -183 l0 -175
138 6 c75 3 335 8 577 11 242 3 618 8 835 12 217 5 632 8 923 7 l527 -1 0 359
0 359 -70 -3 c-43 -1 -75 -7 -82 -15z m-123 -133 c3 -5 1 -10 -4 -10 -6 0 -11
5 -11 10 0 6 2 10 4 10 3 0 8 -4 11 -10z"/>
<path d="M2768 1723 c7 -3 16 -2 19 1 4 3 -2 6 -13 5 -11 0 -14 -3 -6 -6z"/>
<path d="M2648 1613 c7 -3 16 -2 19 1 4 3 -2 6 -13 5 -11 0 -14 -3 -6 -6z"/>
<path d="M117 1552 c-111 -2 -117 -4 -117 -24 0 -22 18 -22 255 -2 66 5 139
21 115 24 -29 4 -136 5 -253 2z"/>
<path d="M2305 1490 c-3 -5 -1 -10 4 -10 6 0 11 5 11 10 0 6 -2 10 -4 10 -3 0
-8 -4 -11 -10z"/>
<path d="M2020 1460 c0 -5 7 -10 16 -10 8 0 12 5 9 10 -3 6 -10 10 -16 10 -5
0 -9 -4 -9 -10z"/>
<path d="M1259 1442 c6 -12 19 -17 38 -16 15 1 29 3 31 4 8 7 28 4 35 -5 6 -6
7 -5 5 3 -2 8 -7 13 -12 12 -5 -1 -13 4 -18 12 -7 9 -11 10 -14 1 -4 -8 -15
-9 -37 -2 -41 12 -39 12 -28 -9z"/>
<path d="M1975 954 c-255 -24 -512 -36 -675 -31 -102 4 -195 8 -206 11 -59 12
-762 5 -783 -9 -7 -3 -71 -11 -144 -16 -73 -5 -140 -12 -149 -15 -16 -5 -18
-21 -18 -145 l0 -139 28 -1 c15 0 47 -1 72 -3 25 -1 55 1 66 5 12 5 27 3 34
-4 10 -9 11 -9 6 0 -6 10 87 13 446 12 249 -1 476 -5 503 -9 28 -5 -151 -7
-400 -6 -247 2 -439 -1 -425 -5 14 -4 -55 -7 -152 -8 l-178 -1 0 -35 0 -34
417 -2 c230 0 483 -1 563 -2 80 0 186 0 235 2 82 2 1463 -8 1685 -12 l95 -2 3
211 2 212 -62 6 c-124 13 -874 29 -963 20z m-1848 -240 c-3 -3 -12 -4 -19 -1
-8 3 -5 6 6 6 11 1 17 -2 13 -5z m1601 -21 c-21 -2 -55 -2 -75 0 -21 2 -4 4
37 4 41 0 58 -2 38 -4z m119 -79 c-3 -3 -12 -4 -19 -1 -8 3 -5 6 6 6 11 1 17
-2 13 -5z"/>
<path d="M240 431 c9 -7 159 -10 398 -10 275 0 387 -3 397 -11 8 -7 19 -9 24
-5 6 3 155 6 332 5 178 0 320 3 316 6 -12 12 -105 14 -797 20 -458 3 -680 1
-670 -5z"/>
<path d="M2035 429 c-17 -5 7 -6 55 -3 61 4 81 2 70 -5 -12 -9 -10 -11 11 -11
14 0 29 4 35 9 5 5 25 12 44 14 19 2 -14 4 -75 4 -60 0 -123 -4 -140 -8z"/>
<path d="M1785 420 c-28 -5 -7 -7 70 -8 61 0 119 3 130 8 25 11 -141 11 -200
0z"/>
<path d="M2355 420 c-4 -6 5 -10 19 -10 14 0 26 5 26 10 0 6 -9 10 -19 10 -11
0 -23 -4 -26 -10z"/>
<path d="M2108 413 c6 -2 18 -2 25 0 6 3 1 5 -13 5 -14 0 -19 -2 -12 -5z"/>
<path d="M535 400 c-38 -4 -149 -11 -245 -15 -140 -7 -167 -10 -135 -17 51
-12 413 -3 615 15 l155 14 -101 2 c-56 0 -128 3 -160 5 -32 3 -90 1 -129 -4z"/>
<path d="M2104 375 c22 -8 51 -12 65 -9 14 3 87 9 161 13 l135 8 -200 1 c-183
1 -197 0 -161 -13z"/>
<path d="M2870 379 c-61 -5 -59 -6 33 -7 61 -1 97 2 97 8 0 6 -15 9 -32 8 -18
-2 -62 -6 -98 -9z"/>
<path d="M1538 373 c7 -3 16 -2 19 1 4 3 -2 6 -13 5 -11 0 -14 -3 -6 -6z"/>
<path d="M1705 370 c-43 -6 -39 -7 35 -7 47 -1 112 3 145 7 56 7 53 7 -35 7
-52 0 -117 -3 -145 -7z"/>
<path d="M2778 373 c7 -3 16 -2 19 1 4 3 -2 6 -13 5 -11 0 -14 -3 -6 -6z"/>
<path d="M1883 303 c9 -2 23 -2 30 0 6 3 -1 5 -18 5 -16 0 -22 -2 -12 -5z"/>
<path d="M2741 277 c-8 -8 -100 -12 -319 -13 -169 -1 -444 -7 -612 -13 -168
-6 -348 -9 -400 -6 -52 3 -391 7 -753 9 l-658 3 3 -40 c3 -35 7 -41 28 -43 49
-5 478 -16 632 -16 87 0 156 -3 153 -8 -2 -4 6 -6 18 -4 59 9 168 10 173 2 3
-5 12 -7 20 -4 8 3 14 1 14 -4 0 -6 -10 -10 -22 -11 -127 -5 -199 -8 -288 -15
-140 -10 -146 -10 -288 -13 -81 -2 -125 -7 -128 -15 -3 -7 -40 -11 -117 -10
-95 2 -119 -1 -154 -19 -44 -21 -55 -40 -28 -51 9 -3 684 -6 1500 -6 l1485 0
0 143 0 143 -124 1 c-83 1 -127 -2 -135 -10z m-1671 -137 c0 -5 -5 -10 -11
-10 -5 0 -7 5 -4 10 3 6 8 10 11 10 2 0 4 -4 4 -10z m89 -10 c-10 -7 -49 -2
-49 5 0 2 14 3 31 3 17 -1 25 -4 18 -8z m45 2 c3 -5 -1 -9 -9 -9 -8 0 -12 4
-9 9 3 4 7 8 9 8 2 0 6 -4 9 -8z"/>
</g>
</svg>
